<svg width="1536" height="756" viewBox="0 0 1536 756" fill="none" xmlns="http://www.w3.org/2000/svg">
<g clip-path="url(#clip0)">
<path d="M0 0H1536V756H0V0Z" fill="white"/>
<path d="M1536 756L1384.66 755.602L1535.6 605.555L1536 756Z" fill="#2D93DA"/>
<path d="M1518.34 737.445L1367 737.047L1517.94 587L1518.34 737.445Z" fill="white"/>
<path d="M1536 0L1535.6 151.343L1385.55 0.400257L1536 0Z" fill="#2D93DA"/>
<path d="M1517.45 17.6567L1517.05 169L1367 18.057L1517.45 17.6567Z" fill="white"/>
<path d="M6.10352e-05 756L1.22722 292L464 754.773L6.10352e-05 756Z" fill="#00438D"/>
<path d="M232 524L231.386 756L9.15527e-05 524.614L232 524Z" fill="#4388D2"/>
</g>
<defs>
<clipPath id="clip0">
<path d="M0 0H1536V756H0V0Z" fill="white"/>
</clipPath>
</defs>
</svg>
